{"title":"The Originals Season 1 WEB-DLRip [AVI] Dual Audio","uid":10191934,"size":13841356800,"categoryP":"video","categoryS":"tv_shows","magnet":"?xt=urn:btih:c1a77710c7781258ef7a6ab383e699f544a068d2&amp;dn=The+Originals+Season+1+WEB-DLRip+%5BAVI%5D+Dual+Audio&amp;tr=udp%3A%2F%2Ftracker.openbittorrent.com%3A80&amp;tr=udp%3A%2F%2Fopen.demonii.com%3A1337&amp;tr=udp%3A%2F%2Ftracker.coppersurfer.tk%3A6969&amp;tr=udp%3A%2F%2Fexodus.desync.com%3A6969","seeders":0,"leechers":1,"uploader":"darkj6","files":-1,"time":1400645112,"description":" ______   _______  ______    ___   _      ___  --------|\n|      | |   _   ||    _ |  |   | | |    |   ||   |----|    \n|  _    ||  |_|  ||   | ||  |   |_| |    |   ||   |___ \n| | |   ||       ||   |_||_ |      _|    |   ||    _  |\n| |_|   ||       ||    __  ||     |_  ___|   ||   | | |\n|       ||   _   ||   |  | ||    _  ||       ||   |_| |\n|______| |__| |__||___|  |_||___| |_||_______||_______|\n\n\nLength: ~ 00:42:00 series \nVideo Quality: WEB-DLRip \n\nVideo Codec: Xvid \nVideo Bitrate: ~ 1531 Kbps \nFrame Size: 720 x 400 (16:9) \nAudio # 1 Russian: AC3, 128 Kbps, 2 ch, 48.0 KHz (1 lot); MP3, 128 Kbps, 2 ch, 48.0 KHz (rest of the series) \nEnglish Audio # 2: AC3, 128 Kbps, 2 ch, 48.0 KHz (1 lot); MP3, 128 Kbps, 2 ch, 48.0 KHz (rest of the series)\n\nFormat : AVI\nFormat/Info : Audio Video Interleave\nFile size : 548 MiB\nDuration : 42mn 33s\nOverall bit rate : 1 801 Kbps\nWriting application : VirtualDubMod 1.5.10.3 ||| (build 2550/release)\nWriting library : VirtualDubMod build 2550/release\n\nVideo\nID : 0\nFormat : MPEG-4 Visual\nFormat profile : Advanced Simple@L5\nFormat settings, BVOP : Yes\nFormat settings, QPel : No\nFormat settings, GMC : No warppoints\nFormat settings, Matrix : Custom\nCodec ID : XVID\nCodec ID/Hint : XviD\nDuration : 42mn 33s\nBit rate : 1 531 Kbps\nWidth : 720 pixels\nHeight : 400 pixels\nDisplay aspect ratio : 16:9\nFrame rate : 23.976 fps\nColor space : YUV\nChroma subsampling : 4:2:0\nBit depth : 8 bits\nScan type : Progressive\nCompression mode : Lossy\nBits/(Pixel*Frame) : 0.222\nStream size : 466 MiB (85%)\nWriting library : XviD 1.2.1 (UTC 2008-12-04)\n\nAudio #1\nID : 1\nFormat : AC-3\nFormat/Info : Audio Coding 3\nMode extension : CM (complete main)\nFormat settings, Endianness : Big\nCodec ID : 2000\nDuration : 42mn 33s\nBit rate mode : Constant\nBit rate : 128 Kbps\nChannel count : 2 channels\nChannel positions : Front: L R\nSampling rate : 48.0 KHz\nBit depth : 16 bits\nCompression mode : Lossy\nStream size : 39.0 MiB (7%)\nAlignment : Split accross interleaves\nInterleave, duration : 42 ms (1.00 video frame)\nInterleave, preload duration : 500 ms\n\nAudio #2\nID : 2\nFormat : AC-3\nFormat/Info : Audio Coding 3\nMode extension : CM (complete main)\nFormat settings, Endianness : Big\nCodec ID : 2000\nDuration : 42mn 33s\nBit rate mode : Constant\nBit rate : 128 Kbps\nChannel count : 2 channels\nChannel positions : Front: L R\nSampling rate : 48.0 KHz\nBit depth : 16 bits\nCompression mode : Lossy\nStream size : 39.0 MiB (7%)\nAlignment : Split accross interleaves\nInterleave, duration : 42 ms (1.00 video frame)\nInterleave, preload duration : 500 ms\n &lt;a href=&quot;\nhttp://imageban.ru/show/2013/10/05/910a401e0f5d22bb08e7590b42f968b9/png&quot; rel=&quot;nofollow&quot; target=&quot;_NEW&quot;&gt;\nhttp://imageban.ru/show/2013/10/05/910a401e0f5d22bb08e7590b42f968b9/png&lt;/a&gt;\n &lt;a href=&quot;\nhttp://imageban.ru/show/2013/10/05/d12da98855984c29291ce85a52b031bb/png&quot; rel=&quot;nofollow&quot; target=&quot;_NEW&quot;&gt;\nhttp://imageban.ru/show/2013/10/05/d12da98855984c29291ce85a52b031bb/png&lt;/a&gt;","torrent":{"xt":"urn:btih:c1a77710c7781258ef7a6ab383e699f544a068d2","amp;dn":"The+Originals+Season+1+WEB-DLRip+%5BAVI%5D+Dual+Audio","amp;tr":["udp%3A%2F%2Ftracker.openbittorrent.com%3A80","udp%3A%2F%2Fopen.demonii.com%3A1337","udp%3A%2F%2Ftracker.coppersurfer.tk%3A6969","udp%3A%2F%2Fexodus.desync.com%3A6969"],"infoHash":"c1a77710c7781258ef7a6ab383e699f544a068d2","infoHashBuffer":{"type":"Buffer","data":[193,167,119,16,199,120,18,88,239,122,106,179,131,230,153,245,68,160,104,210]},"announce":[],"urlList":[]}}